<svg width="40" height="41" viewBox="0 0 40 41" fill="none" xmlns="http://www.w3.org/2000/svg">
<g id="dribbble">
<path id="bg" d="M0 20.9736C0 32.0193 8.95431 40.9736 20 40.9736C31.0457 40.9736 40 32.0193 40 20.9736C40 9.92794 31.0457 0.973633 20 0.973633C8.95431 0.973633 0 9.92794 0 20.9736Z" fill="#333333"/>
<path id="dribbble_2" d="M20 10.9736C14.48 10.9736 10 15.4536 10 20.9736C10 26.4936 14.48 30.9736 20 30.9736C25.5 30.9736 30 26.4936 30 20.9736C30 15.4536 25.5 10.9736 20 10.9736ZM26.6 15.5736C27.8 17.0336 28.5 18.8736 28.54 20.8936C28.26 20.8336 25.44 20.2736 22.6 20.6136C22.54 20.4736 22.48 20.3136 22.42 20.1736C22.24 19.7536 22.06 19.3336 21.86 18.9336C24.98 17.6736 26.42 15.8136 26.6 15.5736ZM20 12.4536C22.16 12.4536 24.16 13.2736 25.66 14.5936C25.5 14.8136 24.22 16.5336 21.18 17.6736C19.78 15.0936 18.22 12.9936 18 12.6736C18.64 12.5336 19.3 12.4536 20 12.4536ZM16.36 13.2536C16.58 13.5536 18.1 15.6736 19.52 18.1936C15.52 19.2536 12 19.2336 11.62 19.2336C12.2 16.5736 13.98 14.3736 16.36 13.2536ZM11.46 20.9936C11.46 20.9136 11.46 20.8136 11.46 20.7336C11.82 20.7536 15.98 20.7936 20.24 19.5136C20.48 19.9936 20.72 20.4736 20.94 20.9736C20.84 21.0136 20.72 21.0336 20.6 21.0736C16.2 22.4936 13.86 26.3736 13.66 26.6936C12.28 25.1736 11.46 23.1736 11.46 20.9936ZM20 29.5136C18.02 29.5136 16.2 28.8336 14.76 27.7136C14.92 27.3936 16.64 24.0536 21.46 22.3736C21.48 22.3536 21.5 22.3536 21.52 22.3536C22.72 25.4736 23.22 28.0736 23.34 28.8336C22.32 29.2736 21.18 29.5136 20 29.5136ZM24.76 28.0536C24.68 27.5336 24.22 25.0336 23.1 21.9736C25.78 21.5536 28.12 22.2536 28.42 22.3336C28.04 24.7136 26.68 26.7736 24.76 28.0536Z" fill="white"/>
</g>
</svg>
