<svg width="40" height="41" viewBox="0 0 40 41" fill="none" xmlns="http://www.w3.org/2000/svg">
<g id="facebook">
<path id="bg" d="M0 20.9736C0 32.0193 8.95431 40.9736 20 40.9736C31.0457 40.9736 40 32.0193 40 20.9736C40 9.92794 31.0457 0.973633 20 0.973633C8.95431 0.973633 0 9.92794 0 20.9736Z" fill="#333333"/>
<path id="facebook_2" d="M30 20.9736C30 15.4736 25.5 10.9736 20 10.9736C14.5 10.9736 10 15.4736 10 20.9736C10 25.9736 13.625 30.0986 18.375 30.8486V23.8486H15.875V20.9736H18.375V18.7236C18.375 16.2236 19.875 14.8486 22.125 14.8486C23.25 14.8486 24.375 15.0986 24.375 15.0986V17.5986H23.125C21.875 17.5986 21.5 18.3486 21.5 19.0986V20.9736H24.25L23.75 23.8486H21.375V30.9736C26.375 30.2236 30 25.9736 30 20.9736Z" fill="white"/>
</g>
</svg>
