<svg width="40" height="41" viewBox="0 0 40 41" fill="none" xmlns="http://www.w3.org/2000/svg">
<g id="github">
<path id="bg" d="M0 20.9736C0 32.0193 8.95431 40.9736 20 40.9736C31.0457 40.9736 40 32.0193 40 20.9736C40 9.92794 31.0457 0.973633 20 0.973633C8.95431 0.973633 0 9.92794 0 20.9736Z" fill="#333333"/>
<path id="githab" fill-rule="evenodd" clip-rule="evenodd" d="M19.9694 11.2139C14.4648 11.2139 10 15.6787 10 21.1833C10 25.587 12.8746 29.3178 16.789 30.6634C17.2783 30.7246 17.4618 30.4188 17.4618 30.1741C17.4618 29.9295 17.4618 29.3178 17.4618 28.4616C14.7095 29.0732 14.0979 27.116 14.0979 27.116C13.6697 25.9539 12.9969 25.6481 12.9969 25.6481C12.0795 25.0365 13.0581 25.0365 13.0581 25.0365C14.0367 25.0977 14.5872 26.0763 14.5872 26.0763C15.5046 27.6053 16.9113 27.1772 17.4618 26.9325C17.5229 26.2597 17.8287 25.8316 18.0734 25.587C15.8716 25.3423 13.5474 24.486 13.5474 20.6328C13.5474 19.5319 13.9144 18.6756 14.5872 17.9417C14.526 17.7582 14.159 16.7185 14.7095 15.3729C14.7095 15.3729 15.5657 15.1282 17.4618 16.4126C18.2569 16.168 19.1131 16.1068 19.9694 16.1068C20.8257 16.1068 21.682 16.2292 22.4771 16.4126C24.3731 15.1282 25.2294 15.3729 25.2294 15.3729C25.7798 16.7185 25.4128 17.7582 25.3517 18.0029C25.9633 18.6756 26.3914 19.5931 26.3914 20.694C26.3914 24.5472 24.0673 25.3423 21.8654 25.587C22.2324 25.8928 22.5382 26.5044 22.5382 27.4218C22.5382 28.7674 22.5382 29.8071 22.5382 30.1741C22.5382 30.4188 22.7217 30.7246 23.211 30.6634C27.1865 29.3178 30 25.587 30 21.1833C29.9388 15.6787 25.474 11.2139 19.9694 11.2139Z" fill="white"/>
</g>
</svg>
