<svg width="48" height="48" viewBox="0 0 48 48" fill="none" xmlns="http://www.w3.org/2000/svg">
<g id="Iconsax/Bold/quoteup">
<path id="Vector" d="M16.18 23.263H6.8C6.96 13.923 8.8 12.383 14.54 8.98303C15.2 8.58303 15.42 7.74303 15.02 7.06303C14.9279 6.90559 14.8053 6.76806 14.6595 6.65847C14.5137 6.54889 14.3475 6.46944 14.1706 6.42476C13.9938 6.38008 13.8098 6.37106 13.6294 6.39824C13.449 6.42541 13.2758 6.48823 13.12 6.58303C6.36 10.583 4 13.023 4 24.643V35.423C4 38.843 6.78 41.603 10.18 41.603H16.18C19.7 41.603 22.36 38.943 22.36 35.423V29.423C22.36 25.923 19.7 23.263 16.18 23.263ZM37.818 23.263H28.438C28.598 13.923 30.438 12.383 36.178 8.98303C36.838 8.58303 37.058 7.74303 36.658 7.06303C36.5638 6.90511 36.4393 6.76735 36.2916 6.65769C36.144 6.54802 35.9762 6.46861 35.7978 6.42401C35.6193 6.3794 35.4339 6.37049 35.252 6.39778C35.0701 6.42507 34.8955 6.48803 34.738 6.58303C27.978 10.583 25.618 13.023 25.618 24.663V35.443C25.618 38.863 28.398 41.623 31.798 41.623H37.798C41.318 41.623 43.978 38.963 43.978 35.443V29.443C43.998 25.923 41.338 23.263 37.818 23.263Z" fill="#444444"/>
</g>
</svg>
