<svg width="40" height="41" viewBox="0 0 40 41" fill="none" xmlns="http://www.w3.org/2000/svg">
<g id="linkedin">
<path id="bg" d="M0 20.9736C0 32.0193 8.95431 40.9736 20 40.9736C31.0457 40.9736 40 32.0193 40 20.9736C40 9.92794 31.0457 0.973633 20 0.973633C8.95431 0.973633 0 9.92794 0 20.9736Z" fill="#333333"/>
<path id="linkedin_2" d="M14.5 30.9736H10.25V17.5986H14.5V30.9736ZM12.375 15.7236C11 15.7236 10 14.7236 10 13.3486C10 11.9736 11.125 10.9736 12.375 10.9736C13.75 10.9736 14.75 11.9736 14.75 13.3486C14.75 14.7236 13.75 15.7236 12.375 15.7236ZM30 30.9736H25.75V23.7236C25.75 21.5986 24.875 20.9736 23.625 20.9736C22.375 20.9736 21.125 21.9736 21.125 23.8486V30.9736H16.875V17.5986H20.875V19.4736C21.25 18.5986 22.75 17.2236 24.875 17.2236C27.25 17.2236 29.75 18.5986 29.75 22.7236V30.9736H30Z" fill="white"/>
</g>
</svg>
