<svg width="32" height="32" viewBox="0 0 32 32" fill="none" xmlns="http://www.w3.org/2000/svg">
<g id="Linear / Call / Phone ">
<path id="Vector" d="M21.4676 17.8119L20.7625 17.1028H20.7625L21.4676 17.8119ZM22.0749 17.2081L22.78 17.9172L22.0749 17.2081ZM25.2971 16.7857L24.8195 17.6643H24.8195L25.2971 16.7857ZM27.8444 18.1705L27.3668 19.0491L27.8444 18.1705ZM28.5622 22.5105L29.2673 23.2196L28.5622 22.5105ZM26.6681 24.3938L25.9631 23.6847L26.6681 24.3938ZM24.9017 25.2867L24.9945 26.2824L24.9017 25.2867ZM11.7538 19.6353L12.4589 18.9261L11.7538 19.6353ZM5.33716 7.66065L4.33877 7.71739L4.33877 7.71739L5.33716 7.66065ZM13.97 9.59635L14.6751 10.3055L13.97 9.59635ZM14.179 6.05782L14.9795 5.45852V5.45852L14.179 6.05782ZM12.4977 3.81194L11.6971 4.41124L11.6971 4.41124L12.4977 3.81194ZM8.34858 3.43294L9.05367 4.14206L9.05367 4.14206L8.34858 3.43294ZM6.25578 5.51386L5.55069 4.80474H5.55069L6.25578 5.51386ZM16.0841 15.3295L16.7892 14.6204L16.0841 15.3295ZM22.1727 18.521L22.78 17.9172L21.3698 16.4989L20.7625 17.1028L22.1727 18.521ZM24.8195 17.6643L27.3668 19.0491L28.322 17.2919L25.7747 15.9071L24.8195 17.6643ZM27.8571 21.8013L25.9631 23.6847L27.3732 25.1029L29.2673 23.2196L27.8571 21.8013ZM24.8089 24.291C22.8757 24.4712 17.8742 24.3107 12.4589 18.9261L11.0487 20.3444C16.9582 26.2203 22.5825 26.5072 24.9945 26.2824L24.8089 24.291ZM12.4589 18.9261C7.29705 13.7936 6.44199 9.4767 6.33555 7.60391L4.33877 7.71739C4.47273 10.0745 5.53148 14.8585 11.0487 20.3444L12.4589 18.9261ZM14.2927 10.6857L14.6751 10.3055L13.2649 8.88723L12.8825 9.26748L14.2927 10.6857ZM14.9795 5.45852L13.2982 3.21265L11.6971 4.41124L13.3784 6.65711L14.9795 5.45852ZM7.64349 2.72382L5.55069 4.80474L6.96087 6.22298L9.05367 4.14206L7.64349 2.72382ZM13.5876 9.9766C12.8825 9.26748 12.8815 9.26843 12.8806 9.26938C12.8803 9.26971 12.8793 9.27068 12.8786 9.27133C12.8773 9.27264 12.876 9.27399 12.8747 9.27536C12.8719 9.27811 12.8692 9.28098 12.8663 9.28398C12.8605 9.28996 12.8544 9.29644 12.848 9.30342C12.8351 9.31738 12.821 9.33336 12.8059 9.3514C12.7756 9.38747 12.7414 9.43188 12.7054 9.48501C12.6332 9.59153 12.5546 9.73237 12.4878 9.90949C12.3517 10.2709 12.2787 10.7473 12.3702 11.3372C12.5492 12.4909 13.3437 14.0149 15.3791 16.0386L16.7892 14.6204C14.8845 12.7265 14.4308 11.574 14.3465 11.0306C14.3064 10.772 14.348 10.6448 14.3594 10.6147C14.3664 10.596 14.3698 10.5941 14.3611 10.6068C14.3569 10.6131 14.3498 10.6228 14.3388 10.6359C14.3333 10.6425 14.3268 10.65 14.3192 10.6582C14.3154 10.6624 14.3112 10.6668 14.3068 10.6713C14.3046 10.6736 14.3024 10.676 14.3 10.6784C14.2988 10.6796 14.2976 10.6808 14.2964 10.682C14.2958 10.6826 14.2949 10.6835 14.2946 10.6838C14.2936 10.6848 14.2927 10.6857 13.5876 9.9766ZM15.3791 16.0386C17.415 18.063 18.946 18.851 20.1018 19.0282C20.6922 19.1188 21.1684 19.0465 21.5296 18.912C21.7067 18.846 21.8477 18.7682 21.9544 18.6967C22.0077 18.6611 22.0522 18.6271 22.0884 18.5971C22.1065 18.5821 22.1225 18.5681 22.1366 18.5553C22.1436 18.5489 22.1501 18.5428 22.1561 18.5371C22.1591 18.5343 22.162 18.5315 22.1648 18.5288C22.1661 18.5274 22.1675 18.5261 22.1688 18.5248C22.1695 18.5242 22.1705 18.5232 22.1708 18.5229C22.1717 18.5219 22.1727 18.521 21.4676 17.8119C20.7625 17.1028 20.7635 17.1018 20.7644 17.1009C20.7647 17.1006 20.7656 17.0997 20.7662 17.0991C20.7675 17.0978 20.7687 17.0967 20.7699 17.0955C20.7723 17.0931 20.7747 17.0909 20.777 17.0887C20.7816 17.0843 20.786 17.0802 20.7901 17.0764C20.7984 17.0689 20.8059 17.0624 20.8125 17.057C20.8256 17.0461 20.8353 17.0391 20.8413 17.0351C20.8538 17.0267 20.8512 17.0305 20.8314 17.0378C20.7988 17.05 20.6679 17.0917 20.405 17.0514C19.854 16.9668 18.6932 16.5136 16.7892 14.6204L15.3791 16.0386ZM13.2982 3.21265C11.9391 1.3972 9.2666 1.10993 7.64349 2.72382L9.05367 4.14206C9.76258 3.43717 11.0216 3.50891 11.6971 4.41124L13.2982 3.21265ZM6.33555 7.60391C6.30933 7.14242 6.52097 6.66038 6.96087 6.22298L5.55069 4.80474C4.83426 5.5171 4.27104 6.5255 4.33877 7.71739L6.33555 7.60391ZM25.9631 23.6847C25.5966 24.049 25.2038 24.2542 24.8089 24.291L24.9945 26.2824C25.9739 26.1911 26.7765 25.6963 27.3732 25.1029L25.9631 23.6847ZM14.6751 10.3055C15.9878 9.00024 16.0853 6.9357 14.9795 5.45852L13.3784 6.65711C13.9164 7.37574 13.8364 8.31901 13.2649 8.88723L14.6751 10.3055ZM27.3668 19.0491C28.4572 19.6418 28.6271 21.0358 27.8571 21.8013L29.2673 23.2196C31.0544 21.4426 30.5033 18.4777 28.322 17.2919L27.3668 19.0491ZM22.78 17.9172C23.292 17.4081 24.1161 17.2819 24.8195 17.6643L25.7747 15.9071C24.3299 15.1217 22.5367 15.3386 21.3698 16.4989L22.78 17.9172Z" fill="url(#paint0_linear_22_158)"/>
</g>
<defs>
<linearGradient id="paint0_linear_22_158" x1="17.3333" y1="-8.23093" x2="17.3333" y2="32.4528" gradientUnits="userSpaceOnUse">
<stop offset="0.140112" stop-color="#A0DAFB"/>
<stop offset="1" stop-color="#0A8ED9"/>
</linearGradient>
</defs>
</svg>
