<svg width="32" height="32" viewBox="0 0 32 32" fill="none" xmlns="http://www.w3.org/2000/svg">
<g id="Linear / Messages, Conversation / Plain">
<path id="Vector" d="M24.8476 20.8934L27.1362 14.0276C29.1355 8.02972 30.1351 5.0308 28.5521 3.44778C26.9691 1.86475 23.9701 2.86439 17.9723 4.86367L11.1065 7.15227C6.26567 8.76588 3.84525 9.57269 3.15743 10.7558C2.50311 11.8813 2.50311 13.2714 3.15743 14.3969C3.84525 15.5801 6.26567 16.3869 11.1065 18.0005C11.8838 18.2596 12.2724 18.3891 12.5973 18.6066C12.9121 18.8174 13.1825 19.0878 13.3933 19.4026C13.6107 19.7274 13.7403 20.1161 13.9994 20.8934C15.613 25.7342 16.4198 28.1546 17.6029 28.8424C18.7284 29.4968 20.1185 29.4968 21.244 28.8424C22.4272 28.1546 23.234 25.7342 24.8476 20.8934Z" stroke="url(#paint0_linear_22_156)" stroke-width="2"/>
<path id="Vector_2" d="M21.6155 11.7983C22.0082 11.4099 22.0117 10.7768 21.6233 10.3841C21.235 9.99141 20.6018 9.9879 20.2091 10.3763L21.6155 11.7983ZM14.2169 19.1153L21.6155 11.7983L20.2091 10.3763L12.8106 17.6933L14.2169 19.1153Z" fill="url(#paint1_linear_22_156)"/>
</g>
<defs>
<linearGradient id="paint0_linear_22_156" x1="16" y1="-10.154" x2="16" y2="37.7092" gradientUnits="userSpaceOnUse">
<stop offset="0.140112" stop-color="#A0DAFB"/>
<stop offset="1" stop-color="#0A8ED9"/>
</linearGradient>
<linearGradient id="paint1_linear_22_156" x1="16.875" y1="14.404" x2="18.1371" y2="15.6801" gradientUnits="userSpaceOnUse">
<stop offset="0.140112" stop-color="#A0DAFB"/>
<stop offset="1" stop-color="#0A8ED9"/>
</linearGradient>
</defs>
</svg>
